<svg xmlns="http://www.w3.org/2000/svg" width="39.366" height="39.033" viewBox="0 0 39.366 39.033"><defs><style>.a{fill:#00ffe0;}.b{fill:#d6f4fc;}.c{fill:#06e3c8;}.d{fill:#e8f8fc;}</style></defs><g transform="translate(0 -2.034)"><path class="a" d="M38.509,91.9a3.937,3.937,0,0,1,3.937,3.937l0,12.421a3.932,3.932,0,0,1-3.935,3.835H11.937A3.937,3.937,0,0,1,8,108.152V95.833A3.937,3.937,0,0,1,11.937,91.9Z" transform="translate(-7.344 -82.492)"/><path class="b" d="M330.96,326.619l-2.306,2.306a.656.656,0,0,1-.966-.042l-3.237-3.851a.656.656,0,0,0-.966-.042l-1.047,1.047a.656.656,0,0,1-1.093-.276l-2.407-8.04a.656.656,0,0,1,.817-.817l8.04,2.407a.656.656,0,0,1,.277,1.093l-1.047,1.048a.656.656,0,0,0,.042.966l3.851,3.236A.656.656,0,0,1,330.96,326.619Z" transform="translate(-292.756 -289.02)"/><path class="c" d="M38.566,95.171c-2.562,0-6.931,0-14.435,0a12.849,12.849,0,0,0-12.853,13.041A1.64,1.64,0,1,1,8,108.149V95.83a3.937,3.937,0,0,1,3.937-3.937c.182,0,26.605,0,26.719,0A1.639,1.639,0,0,1,38.566,95.171Z" transform="translate(-7.344 -82.489)"/><path class="d" d="M323.3,324.057a1.511,1.511,0,0,1-.378,1.5l-.48.48a.657.657,0,0,1-1.093-.276l-2.406-8.04a.656.656,0,0,1,.817-.817l.756.226a1.509,1.509,0,0,1,1.018,1.027C321.748,318.911,322.236,320.516,323.3,324.057Z" transform="translate(-292.757 -289.022)"/><path d="M12.635,33.246a.656.656,0,0,1,0,.928l-.812.812a.656.656,0,0,1-.928-.928l.812-.812a.656.656,0,0,1,.928,0Zm9.959-4.306h-18A3.284,3.284,0,0,1,1.312,25.66V13.341A3.284,3.284,0,0,1,4.593,10.06H31.165a3.284,3.284,0,0,1,3.281,3.281v8.474a.656.656,0,1,0,1.312,0V13.341a4.6,4.6,0,0,0-4.593-4.593H4.593A4.6,4.6,0,0,0,0,13.341V25.66a4.6,4.6,0,0,0,4.593,4.593h18a.656.656,0,0,0,0-1.312ZM11.708,5.754a.656.656,0,0,0,.928-.928l-.812-.812a.656.656,0,0,0-.928.928Zm6.171-1.26a.656.656,0,0,0,.656-.656V2.69a.656.656,0,1,0-1.312,0V3.838A.656.656,0,0,0,17.879,4.494Zm6.171,1.26.812-.812a.656.656,0,1,0-.928-.928l-.812.812a.656.656,0,0,0,.928.928ZM17.879,34.506a.656.656,0,0,0-.656.656V36.31a.656.656,0,1,0,1.312,0V35.162A.656.656,0,0,0,17.879,34.506Zm21.253,2.085-4.4-3.7,1.824-1.824a.657.657,0,0,0-.276-1.093l-10.26-3.071a.657.657,0,0,0-.817.817l3.071,10.26a.657.657,0,0,0,1.093.276l2.33-2.33A.656.656,0,0,0,30.772,35l-1.553,1.553-2.407-8.041,8.041,2.407L33.3,32.473a.656.656,0,0,0,.042.966l4.4,3.7-2.306,2.306-1.274-1.516a.656.656,0,1,0-1,.844l1.734,2.064a.656.656,0,0,0,.966.042l3.318-3.318a.656.656,0,0,0-.042-.966ZM11.817,19.5a2.711,2.711,0,0,1,.949,2.06.656.656,0,0,1-1.312,0,1.406,1.406,0,0,0-1.4-1.4H7.821v2.809h2.229a.656.656,0,0,1,0,1.312H7.165a.656.656,0,0,1-.656-.656V15.379a.656.656,0,0,1,.656-.656h2.885A2.719,2.719,0,0,1,11.817,19.5Zm-.363-2.06a1.406,1.406,0,0,0-1.4-1.4H7.821v2.809h2.229A1.406,1.406,0,0,0,11.454,17.44Zm3.953-2.717a.656.656,0,0,0-.656.656v5.769a3.129,3.129,0,1,0,6.257,0V15.379a.656.656,0,0,0-1.312,0v5.769a1.816,1.816,0,1,1-3.633,0V15.379a.656.656,0,0,0-.656-.656Zm19.7,9.449a.656.656,0,0,0-.656.656v.831a.656.656,0,1,0,1.312,0v-.831A.656.656,0,0,0,35.1,24.172Zm-8.981.1a.656.656,0,0,0,.656-.656V19.682l2.379-3.965a.656.656,0,0,0-1.125-.675l-1.91,3.183-1.91-3.183a.656.656,0,0,0-1.125.675l2.379,3.965V23.62a.656.656,0,0,0,.656.656Z"/></g></svg>