<svg xmlns="http://www.w3.org/2000/svg" width="44.998" height="44.999" viewBox="0 0 44.998 44.999"><defs><style>.a{fill:#00ffe0;}.a,.b{fill-rule:evenodd;}.b{fill:#f2f2f2;}</style></defs><g transform="translate(-0.007)"><g transform="translate(0.886 0.879)"><path class="a" d="M135.576,36.561l10.631-10.71a1.05,1.05,0,0,0-.743-1.789h-1.84v-12.3A1.763,1.763,0,0,0,141.867,10H127.8a1.763,1.763,0,0,0-1.758,1.758v12.3H124.21a1.05,1.05,0,0,0-.687,1.845l10.572,10.65A1.047,1.047,0,0,0,135.576,36.561Z" transform="translate(-113.215 -10)"/><path class="b" d="M30.571,340.493c-5.5.683-17.311-4.421-20.519,10.894a1.526,1.526,0,0,0,1.288,1.968h8.845a1.588,1.588,0,0,0,1.76-1.3l.826-1.607,6.017.067a17.507,17.507,0,0,0,8.791-1.663c5.151-2.065,12.62-5.446,14.284-6.072,2.42-.938,1.514-4.4-1.487-3.646l-9.827,2.649a1.508,1.508,0,0,0,.1-.773,1.894,1.894,0,0,0-2.109-1.635c-.988.123-6.978.992-7.966,1.114Z" transform="translate(-10.009 -310.113)"/></g><g transform="translate(0.007 0)"><path d="M44.877,330.966a3,3,0,0,0-3.837-1.805l-.015,0L32.347,331.5a2.772,2.772,0,0,0-3.041-2.122c-.5.062-2.2.3-3.993.558-1.714.244-3.486.5-3.973.556a22.093,22.093,0,0,1-4.012-.1c-.533-.042-1.085-.086-1.649-.121a.879.879,0,1,0-.111,1.754c.551.035,1.1.078,1.622.119a23.123,23.123,0,0,0,4.367.091c.5-.062,2.2-.3,4-.56,1.709-.243,3.476-.494,3.962-.554a1.011,1.011,0,0,1,1.129.872c.022.174.08.636-1.136,1.193a47.721,47.721,0,0,1-7.309,2.691.879.879,0,1,0,.447,1.7,49.524,49.524,0,0,0,7.594-2.793,4.065,4.065,0,0,0,1.768-1.376l9.458-2.55c1.042-.259,1.576.157,1.727.634a1.084,1.084,0,0,1-.776,1.34c-.736.277-2.5,1.044-4.726,2.013-2.956,1.286-6.636,2.887-9.57,4.063a16.721,16.721,0,0,1-8.455,1.6l-6.017-.067h-.01a.879.879,0,0,0-.782.477l-.826,1.607a.887.887,0,0,0-.067.174c-.122.455-.276.646-.911.646H2.217a.388.388,0,0,1-.284-.163.871.871,0,0,1-.144-.745c1.058-5.052,3.144-8.182,6.377-9.568a.879.879,0,1,0-.693-1.615c-3.8,1.629-6.22,5.169-7.4,10.823a2.632,2.632,0,0,0,.5,2.214,2.13,2.13,0,0,0,1.648.813h8.845a2.461,2.461,0,0,0,2.582-1.852l.538-1.046,5.474.061a18.406,18.406,0,0,0,9.128-1.726c2.958-1.186,6.651-2.792,9.617-4.083,2.123-.924,3.957-1.722,4.649-1.982l.008,0a2.825,2.825,0,0,0,1.819-3.512Z" transform="translate(-0.007 -300.11)"/><path d="M188.646,68.113a2.637,2.637,0,1,0-2.637-2.637A2.64,2.64,0,0,0,188.646,68.113Zm0-3.516a.879.879,0,1,1-.879.879A.88.88,0,0,1,188.646,64.6Z" transform="translate(-169.661 -57.317)"/><path d="M266.009,145.478a2.637,2.637,0,1,0,2.637-2.637A2.64,2.64,0,0,0,266.009,145.478Zm3.516,0a.879.879,0,1,1-.879-.879A.88.88,0,0,1,269.525,145.478Z" transform="translate(-242.63 -130.287)"/><path d="M211.806,75.026a.878.878,0,0,0,1.2-.322L219.1,64.158a.879.879,0,0,0-1.522-.879l-6.089,10.547A.879.879,0,0,0,211.806,75.026Z" transform="translate(-192.791 -57.316)"/><path d="M113.8,17.425l10.553,10.631a1.914,1.914,0,0,0,1.361.568h.006a1.917,1.917,0,0,0,1.362-.565l10.631-10.71a1.929,1.929,0,0,0-1.366-3.287h-.961V2.637A2.64,2.64,0,0,0,132.746,0H118.684a2.64,2.64,0,0,0-2.637,2.637V14.062h-.958a1.929,1.929,0,0,0-1.291,3.363Zm1.291-1.605h1.837a.879.879,0,0,0,.879-.879V2.637a.88.88,0,0,1,.879-.879h14.062a.88.88,0,0,1,.879.879v12.3a.879.879,0,0,0,.879.879h1.84a.172.172,0,0,1,.12.29h0L125.835,26.817a.165.165,0,0,1-.119.049h0a.165.165,0,0,1-.118-.049l-10.572-10.65c-.016-.016-.032-.031-.048-.045a.17.17,0,0,1-.06-.13.172.172,0,0,1,.172-.171Z" transform="translate(-103.215 0)"/><path d="M123.564,343.2a.879.879,0,1,0,.88.879.879.879,0,0,0-.88-.879Z" transform="translate(-111.903 -313.033)"/></g></g></svg>