<svg xmlns="http://www.w3.org/2000/svg" width="43.125" height="43.125" viewBox="0 0 43.125 43.125"><defs><style>.a{fill:#00ffe0;}</style></defs><g transform="translate(-253 -286.972)"><g transform="translate(253 286.972)"><g transform="translate(2.782 2.782)"><path class="a" d="M16.129,27.258A11.129,11.129,0,1,1,27.258,16.129,11.142,11.142,0,0,1,16.129,27.258Z" transform="translate(-5 -5)"/></g><g transform="translate(11.129 32.305)"><path class="a" d="M34.389,49.918c-5.192,0-9.712-1-12.1-2.473C18.781,47.893,17,48.723,17,49.918c0,2.7,9.366,2.782,10.433,2.782s10.433-.078,10.433-2.782a1.1,1.1,0,0,0-.017-.158C36.741,49.859,35.586,49.918,34.389,49.918Z" transform="translate(-17 -47.445)"/></g><g transform="translate(18.084 24.344)"><path class="a" d="M37.433,36a36.469,36.469,0,0,0-7.611.764,13.187,13.187,0,0,1-2.5,1.216,1.21,1.21,0,0,0-.325.8c0,2.7,9.366,2.782,10.433,2.782s10.433-.078,10.433-2.782S38.5,36,37.433,36Z" transform="translate(-27 -36)"/></g><g transform="translate(0 0)"><path d="M29.518,22.562c-1.048,0-2.073.054-3.083.134a13.907,13.907,0,1,0-11.523,6.126v2.087c0,.031,0,.06.006.09-4.432.989-6.961,2.714-6.961,4.779V38.56c0,3.614,7.526,5.564,14.607,5.564s14.607-1.95,14.607-5.564V35.778c0-.031-.007-.062-.008-.093,3.979-.885,6.964-2.5,6.964-4.776V28.127C44.125,24.513,36.6,22.562,29.518,22.562Zm0,1.391c7.788,0,13.216,2.2,13.216,4.173S37.306,32.3,29.518,32.3c-6.988,0-12.061-1.771-13.033-3.573A13.877,13.877,0,0,0,25.237,24.2,37.191,37.191,0,0,1,29.518,23.953ZM16.3,30.6a7.981,7.981,0,0,0,1.391.885V32.68C16.8,32.112,16.3,31.5,16.3,30.909Zm2.782,1.491c.439.163.9.314,1.391.454v1.339c-.5-.156-.972-.321-1.391-.5Zm2.782.806c.451.1.917.191,1.391.273v1.381c-.483-.087-.951-.181-1.391-.285Zm2.782.481q.688.089,1.391.152v1.388q-.716-.065-1.391-.154Zm2.782.252q.695.038,1.391.05V35.07q-.711-.013-1.391-.048Zm2.782.05q.7-.013,1.391-.05v1.388q-.681.035-1.391.048ZM33,33.535q.7-.064,1.391-.152v1.387q-.675.09-1.391.154Zm2.782-.361c.474-.081.94-.172,1.391-.273V34.27c-.44.1-.908.2-1.391.285Zm2.782-.625c.486-.139.952-.29,1.391-.454v1.3c-.419.175-.889.34-1.391.5ZM2.391,14.911a12.52,12.52,0,1,1,12.52,12.52,12.534,12.534,0,0,1-12.52-12.52Zm12.948,17.42c1.681,2.7,8.092,4.143,14.179,4.143a37.507,37.507,0,0,0,6.229-.512c-.321,1.924-5.636,3.99-13.184,3.99-7.788,0-13.216-2.2-13.216-4.173C9.347,34.693,11.209,33.233,15.339,32.331ZM13.52,40.2v1.339c-.5-.156-.972-.321-1.391-.5v-1.3C12.568,39.909,13.034,40.06,13.52,40.2Zm1.391.353c.451.1.917.191,1.391.273v1.381c-.483-.087-.951-.181-1.391-.285Zm2.782.481q.688.089,1.391.152v1.388q-.716-.065-1.391-.154Zm2.782.252q.695.038,1.391.05v1.386q-.711-.013-1.391-.048Zm2.782.05q.7-.013,1.391-.05v1.388q-.681.035-1.391.048Zm2.782-.15q.7-.064,1.391-.152V42.42q-.675.09-1.391.154Zm2.782-.361c.474-.081.94-.172,1.391-.273v1.369c-.44.1-.908.2-1.391.285ZM31.6,40.2c.486-.139.952-.29,1.391-.454v1.3c-.419.175-.889.34-1.391.5ZM9.347,38.56v-.305a7.981,7.981,0,0,0,1.391.885v1.191C9.844,39.764,9.347,39.152,9.347,38.56Zm25.04,1.771V39.14a7.981,7.981,0,0,0,1.391-.885v.305C35.778,39.152,35.281,39.764,34.387,40.331Zm6.956-7.651V31.489a7.981,7.981,0,0,0,1.391-.885v.305C42.733,31.5,42.236,32.113,41.342,32.68Z" transform="translate(-1 -1)"/></g></g><path d="M7.814-.583h-1.5V-4.431H2.444V-.583H.939V-9.242h1.5v3.6H6.316v-3.6h1.5Zm4.264-3.741L11.1-3.283v2.7h-1.5V-9.242h1.5V-5.18l.833-1.029,2.534-3.033h1.82L13.066-5.406l3.4,4.823H14.684Z" transform="translate(258.562 306.32)"/></g></svg>