<svg xmlns="http://www.w3.org/2000/svg" width="43.824" height="40.824" viewBox="0 0 43.824 40.824"><defs><style>.a{fill:#333;}.b{fill:#00ffe0;stroke:#393939;stroke-width:2px;}</style></defs><g transform="translate(1.449 -0.584)"><path class="a" d="M66.856,289.7H56.32v-17.12H55V289.7H33.933V279.169H32.616v11.852H68.173V279.169H66.856Z" transform="translate(-29.931 -249.613)"/><path class="b" d="M41.44,272.485l-3.292-7.9H3.908l-3.292,7.9h23.7l1.975-4.741,1.975,4.741Z" transform="translate(-0.565 -242.271)"/><g transform="translate(0 0.584)"><path class="a" d="M132.1,197.97a8.987,8.987,0,0,1,.559,1.329l1.25-.413a10.251,10.251,0,0,0-.643-1.527Z" transform="translate(-121.224 -181.164)"/><path class="a" d="M144.655,236.351a8.9,8.9,0,0,0-.134-1.063l-1.3.233a8,8,0,0,1,.115.894Z" transform="translate(-131.436 -215.97)"/><path class="a" d="M385.405,202.816l-1.128-.68a8.6,8.6,0,0,0-.645,1.312l1.227.48A7.234,7.234,0,0,1,385.405,202.816Z" transform="translate(-352.056 -185.547)"/><path class="a" d="M376.624,236.146l1.316.048a5.706,5.706,0,0,1,.126-.862l-1.287-.277A6.648,6.648,0,0,0,376.624,236.146Z" transform="translate(-345.625 -215.757)"/><path class="a" d="M409.182,135.016l-1.291.259.47,2.352c-1.416-.19-4.017-.32-5.52.969h0a7.92,7.92,0,0,0-.768.756l.984.874a6.65,6.65,0,0,1,.641-.63l-.428-.5.429.5c1-.861,2.978-.849,4.321-.688l-1.326,1.769,1.054.789L409.9,138.6Z" transform="translate(-368.979 -123.951)"/><path class="a" d="M185.824,184.245a20.005,20.005,0,0,1,.677,1.957l1.266-.364a21.121,21.121,0,0,0-.722-2.085Z" transform="translate(-170.529 -168.676)"/><path class="a" d="M200.868,236.545a9.37,9.37,0,0,0-.109-1.065l-1.3.2a8.131,8.131,0,0,1,.1.9Z" transform="translate(-183.039 -216.146)"/><path class="a" d="M66.56,35.283a26.763,26.763,0,0,1,6.864,7.689L74,42.644l-.571.327q.245.429.46.843l1.169-.606q-.226-.439-.487-.892h0a27.687,27.687,0,0,0-6.877-7.832l1.842-.417-.29-1.285-3.67.832-.78,3.623,1.287.277Z" transform="translate(-59.459 -30.134)"/><path class="a" d="M333.363,67.718l-.566-.337.566.337a16.767,16.767,0,0,1,6.654-5.81l.022,2.187,1.317-.013-.036-3.527L338.472,58.3l-.816,1.034,1.762,1.391a17.905,17.905,0,0,0-7.186,6.315h0c-.18.3-.345.61-.5.917l1.183.58C333.054,68.264,333.2,67.989,333.363,67.718Z" transform="translate(-304.432 -53.553)"/><path class="a" d="M319.464,195.476l-1.243-.436a17,17,0,0,0-.485,1.648l1.281.309A15.311,15.311,0,0,1,319.464,195.476Z" transform="translate(-291.584 -179.035)"/><path class="a" d="M314.04,235.754l-1.305-.178c-.087.634-.1,1.029-.1,1.046l1.316.051S313.961,236.318,314.04,235.754Z" transform="translate(-286.9 -216.235)"/><path class="a" d="M262.832,195.484l1.314-.072c-.031-.571-.078-1.165-.142-1.764l-1.309.138C262.76,194.406,262.8,194.975,262.832,195.484Z" transform="translate(-241.074 -177.758)"/><path class="a" d="M256.76,153.154l1.3-.2c-.085-.555-.186-1.136-.306-1.739l-1.291.257C256.58,152.057,256.677,152.619,256.76,153.154Z" transform="translate(-235.355 -138.818)"/><path class="a" d="M264.616,237.542l1.314.091s.026-.367.028-1.029l-1.317,0C264.639,237.193,264.617,237.529,264.616,237.542Z" transform="translate(-242.836 -217.174)"/><path class="a" d="M179.487,2.48a26.551,26.551,0,0,1,3.858,8.157l.634-.176-.634.178c.088.315.171.629.248.937l1.277-.319c-.08-.319-.165-.645-.257-.973h0A27.82,27.82,0,0,0,180.7,1.9h1.966V.584h-3.7l-1.5,3,1.178.589Z" transform="translate(-162.858 -0.584)"/><path class="a" d="M9.484,108.266a6,6,0,0,1,.611.646l1.021-.832a7.313,7.313,0,0,0-.746-.789c-2.739-2.489-6.787-2.825-8.677-2.834l.944-2.361-1.223-.489L0,105.145l1.414,3.537,1.223-.489-.966-2.414C3.373,105.791,7.085,106.085,9.484,108.266Z" transform="translate(0 -93.293)"/></g></g></svg>